<svg width="178" height="126" viewBox="0 0 178 126" fill="none" xmlns="http://www.w3.org/2000/svg">
<path fill-rule="evenodd" clip-rule="evenodd" d="M141.478 101.854V101.87H129.895C126.745 101.87 124.95 99.3591 124.875 97.0468L124.857 96.4659C124.785 94.2606 126.291 92.5815 127.428 91.8459L138.938 84.3998H125.692V80.9825H137.659C141.808 80.9825 143.912 82.9951 143.912 86.7707V101.854H141.478ZM29.0609 80.6168H34.9052C39.0876 80.6168 42.5095 84.0425 42.5095 88.2296V94.2064C42.5095 98.3934 39.0876 101.819 34.9052 101.819H29.0609C24.8786 101.819 21.4568 98.3934 21.4568 94.2064V88.2296C21.4568 84.0425 24.8786 80.6168 29.0609 80.6168ZM29.8275 83.7627H34.1388C36.6517 83.7627 38.7074 85.7022 38.7074 88.2177V94.3442C38.7074 96.8596 36.6514 98.7991 34.1388 98.7991H29.8275C27.3149 98.7991 25.2588 96.8599 25.2588 94.3442V88.2177C25.2588 85.7021 27.3148 83.7627 29.8275 83.7627ZM77.6403 84.8484C77.9971 82.5664 79.2722 81.0763 81.2091 81.0763H86.6138C88.9447 81.0763 91.4947 83.5246 91.5005 86.5028V101.854H87.6671L87.6688 86.5344C87.6689 85.5262 86.4568 84.3793 85.5768 84.3793H80.3293C78.985 84.3793 77.6748 85.4409 77.6748 87.0439V101.854H73.8414L73.8407 86.5656C73.8407 85.4173 72.6152 84.3793 71.7825 84.3793H66.9592C65.6831 84.3793 63.9749 85.5103 63.9749 87.4482V101.854H60.1414V80.9825H63.9749V84.4629C64.9274 82.3217 66.5591 81.0763 68.3888 81.0763H72.788C75.0969 81.0763 77.3 83.3168 77.6403 84.8484ZM164.965 79.6139V98.2524H171.737V101.87H153.513V98.2524H160.88V79.9616C160.88 79.571 160.587 79.221 160.165 79.221H154.392V75.6824H160.88C163.531 75.6824 164.965 77.4683 164.965 79.6139ZM45.7501 85.827C45.7501 82.6589 48.0377 80.967 50.2283 80.967H57.0469V84.5846H51.626C50.396 84.5846 49.5835 85.4884 49.5835 86.5624V101.854H45.7501V85.827ZM109.662 101.839H102.295C97.8149 101.839 95.2452 99.1437 95.2082 94.4459L95.2084 94.4455V80.9825H99.0419V94.4462H99.0393C99.0756 96.6603 99.899 98.0008 102.295 98.0008H109.662V80.9825H113.496V101.854H109.662V101.839ZM18.9317 86.8334V90.3876H3.8959V101.854H0.0625V75.6818H0.973731V75.6816H19.5284V79.5193H3.8959V86.8334H18.9317ZM117.895 75.6818H121.98V101.854H117.895V75.6818ZM140.079 87.1972L129.523 94.0443C129.057 94.3465 128.517 95.2957 128.534 95.9484L128.544 96.3143C128.563 97.0611 129.524 98.4414 130.806 98.4414H140.079V87.1972Z" fill="white"/>
<path fill-rule="evenodd" clip-rule="evenodd" d="M151.229 24.1532H178L133.837 68.6967H107.066L151.229 24.1532ZM25.1374 68.6967H0L31.3632 36.9877C40.1685 27.5683 51.5308 24.1289 65.7309 24.1289H145.895L129.251 40.9183H64.7101C53.9047 40.8973 49.644 44.0605 43.6341 50.1022L25.1374 68.6967Z" fill="#FF0000"/>
<path fill-rule="evenodd" clip-rule="evenodd" d="M52.876 68.289H29.875L44.6458 53.4413C54.7068 43.3279 57.0271 43.7237 73.9905 43.7802H126.331L111.324 58.8044L72.2336 58.7724C67.5138 58.7685 62.6325 58.7333 58.022 63.249L52.876 68.289Z" fill="#FF0000"/>
</svg>
